<?xml version="1.0" encoding="utf-8"?>
<!-- Generator: Adobe Illustrator 18.1.1, SVG Export Plug-In . SVG Version: 6.00 Build 0)  -->
<svg version="1.1" xmlns="http://www.w3.org/2000/svg" xmlns:xlink="http://www.w3.org/1999/xlink" x="0px" y="0px"
	 viewBox="0 0 1068.5 436.9" enable-background="new 0 0 1068.5 436.9" xml:space="preserve">
<g id="text">
	<g>
		<path fill="#FFFFFF" d="M47.2,312.9h2.6l-15.4,22.2v16h-2.4v-16l-15.3-22.2h2.7l13.8,20.2L47.2,312.9z"/>
		<path fill="#FFFFFF" d="M44.9,337.4c0-2,0.3-3.8,0.8-5.5c0.6-1.7,1.4-3.3,2.4-4.6c1.1-1.3,2.4-2.4,4-3.1c1.6-0.8,3.4-1.2,5.4-1.2
			c2,0,3.8,0.4,5.4,1.2c1.6,0.8,2.9,1.8,4,3.1c1.1,1.3,1.9,2.8,2.4,4.6c0.6,1.7,0.8,3.6,0.8,5.5c0,2-0.3,3.8-0.8,5.6
			c-0.6,1.8-1.4,3.3-2.4,4.6c-1.1,1.3-2.4,2.3-4,3.1c-1.6,0.8-3.4,1.2-5.4,1.2c-2,0-3.8-0.4-5.4-1.2c-1.6-0.8-2.9-1.8-4-3.1
			c-1.1-1.3-1.9-2.8-2.4-4.6C45.2,341.2,44.9,339.4,44.9,337.4z M47,337.4c0,1.6,0.2,3.2,0.7,4.7c0.5,1.5,1.1,2.9,2,4
			c0.9,1.2,2,2.1,3.3,2.8c1.3,0.7,2.8,1,4.6,1s3.2-0.3,4.6-1c1.3-0.7,2.4-1.6,3.3-2.8c0.9-1.2,1.6-2.5,2-4c0.5-1.5,0.7-3.1,0.7-4.7
			c0-1.6-0.2-3.2-0.7-4.7c-0.5-1.5-1.1-2.9-2-4c-0.9-1.2-2-2.1-3.3-2.8c-1.3-0.7-2.8-1-4.6-1s-3.2,0.3-4.6,1
			c-1.3,0.7-2.4,1.6-3.3,2.8c-0.9,1.2-1.6,2.5-2,4C47.2,334.2,47,335.8,47,337.4z"/>
		<path fill="#FFFFFF" d="M96.8,351.2h-2v-5.9h-0.1c-0.4,1-0.9,2-1.5,2.8c-0.7,0.8-1.4,1.5-2.3,2.1c-0.9,0.6-1.8,1-2.9,1.3
			c-1,0.3-2.1,0.4-3.2,0.4c-1.6,0-3-0.2-4.1-0.6c-1.1-0.4-2-0.9-2.8-1.6c-0.7-0.6-1.3-1.4-1.7-2.2c-0.4-0.8-0.7-1.6-0.9-2.4
			c-0.2-0.8-0.3-1.6-0.3-2.4c0-0.8-0.1-1.4-0.1-2v-17h2v17.4c0,0.7,0.1,1.6,0.2,2.6c0.1,1,0.4,2,0.9,2.9c0.5,0.9,1.3,1.8,2.3,2.4
			c1,0.7,2.5,1,4.4,1c1.5,0,2.9-0.3,4.2-0.9s2.3-1.4,3.1-2.4s1.5-2.2,2-3.6c0.4-1.4,0.7-3,0.7-4.6v-14.9h2V351.2z"/>
		<path fill="#FFFFFF" d="M143,323.9c-0.1-1.6-0.4-3.1-1-4.3c-0.6-1.2-1.5-2.2-2.5-3.1c-1.1-0.8-2.3-1.4-3.8-1.8
			c-1.5-0.4-3.1-0.6-4.8-0.6c-1.1,0-2.2,0.1-3.5,0.4c-1.2,0.2-2.4,0.7-3.4,1.3c-1.1,0.6-1.9,1.5-2.6,2.5c-0.7,1.1-1,2.4-1,3.9
			c0,1.5,0.4,2.8,1.1,3.7c0.7,1,1.7,1.7,2.9,2.3c1.2,0.6,2.6,1.1,4.2,1.4c1.6,0.4,3.2,0.7,4.8,1c1.6,0.3,3.2,0.7,4.8,1.2
			s2.9,1.1,4.2,1.8s2.2,1.8,3,3c0.8,1.2,1.1,2.8,1.1,4.6c0,2-0.4,3.7-1.3,5c-0.9,1.4-1.9,2.5-3.2,3.3c-1.3,0.9-2.8,1.5-4.3,1.8
			c-1.6,0.4-3.1,0.6-4.6,0.6c-2.2,0-4.4-0.2-6.3-0.7c-2-0.5-3.7-1.3-5.1-2.4c-1.5-1.1-2.6-2.5-3.5-4.2c-0.8-1.7-1.2-3.8-1.2-6.3h2.4
			c-0.1,2.1,0.2,3.9,0.9,5.3c0.7,1.4,1.7,2.6,3,3.6c1.3,0.9,2.8,1.6,4.5,2c1.7,0.4,3.5,0.6,5.4,0.6c1.1,0,2.4-0.1,3.7-0.4
			c1.3-0.3,2.5-0.8,3.6-1.4c1.1-0.7,2-1.6,2.7-2.7c0.7-1.1,1.1-2.5,1.1-4.2c0-1.6-0.4-2.9-1.1-3.9c-0.8-1-1.7-1.8-3-2.5
			c-1.2-0.6-2.6-1.1-4.2-1.5s-3.2-0.7-4.8-1c-1.6-0.3-3.2-0.7-4.8-1.1c-1.6-0.4-3-1-4.2-1.7c-1.2-0.7-2.2-1.7-2.9-2.8
			s-1.1-2.7-1.1-4.5s0.4-3.4,1.2-4.7c0.8-1.3,1.8-2.4,3-3.2s2.6-1.4,4.2-1.8c1.5-0.4,3.1-0.6,4.6-0.6c2,0,3.9,0.2,5.6,0.7
			c1.7,0.4,3.2,1.1,4.6,2.1c1.3,0.9,2.3,2.2,3.1,3.7c0.8,1.5,1.2,3.3,1.3,5.4H143z"/>
		<path fill="#FFFFFF" d="M152.2,337.7v0.3c0,1.6,0.2,3.1,0.6,4.6c0.4,1.5,1.1,2.8,1.9,3.9c0.8,1.1,1.9,2,3.2,2.6
			c1.3,0.6,2.7,1,4.4,1c2.8,0,4.9-0.7,6.6-2.2s2.7-3.5,3.3-6h2c-0.6,3.2-1.9,5.7-3.9,7.4c-2,1.7-4.7,2.6-8,2.6c-2,0-3.8-0.4-5.3-1.1
			c-1.5-0.7-2.8-1.7-3.8-3c-1-1.3-1.8-2.8-2.3-4.5c-0.5-1.7-0.8-3.6-0.8-5.6c0-1.9,0.3-3.8,0.8-5.5c0.5-1.8,1.3-3.3,2.3-4.7
			c1-1.3,2.3-2.4,3.9-3.2c1.6-0.8,3.4-1.2,5.5-1.2c1.9,0,3.6,0.4,5.1,1.1c1.5,0.7,2.7,1.7,3.7,2.9c1,1.2,1.8,2.7,2.3,4.3
			c0.5,1.6,0.8,3.4,0.8,5.2c0,0.2,0,0.4,0,0.6c0,0.2,0,0.4,0,0.6H152.2z M172.4,335.9c-0.1-1.5-0.3-2.9-0.8-4.3
			c-0.4-1.3-1.1-2.5-1.9-3.5c-0.8-1-1.9-1.8-3.1-2.4c-1.2-0.6-2.6-0.9-4.1-0.9c-1.6,0-3.1,0.3-4.4,0.9c-1.3,0.6-2.3,1.4-3.2,2.5
			c-0.9,1-1.5,2.2-2,3.6c-0.5,1.4-0.8,2.8-0.9,4.2H172.4z"/>
		<path fill="#FFFFFF" d="M197.5,345.7h-0.1c-0.3,0.8-0.8,1.6-1.4,2.3c-0.6,0.7-1.3,1.4-2.2,2c-0.9,0.6-1.9,1-3,1.3
			c-1.1,0.3-2.3,0.5-3.6,0.5c-2.9,0-5.2-0.6-6.8-1.9c-1.6-1.3-2.4-3.2-2.4-5.9c0-1.6,0.3-2.9,1-3.9c0.6-1,1.5-1.8,2.4-2.4
			c1-0.6,2.1-1,3.3-1.3c1.2-0.2,2.3-0.4,3.5-0.5l3.2-0.3c1.5-0.1,2.6-0.3,3.5-0.5c0.8-0.2,1.5-0.6,1.9-1c0.4-0.4,0.7-0.9,0.8-1.6
			s0.2-1.4,0.2-2.4c0-0.8-0.1-1.4-0.4-2.1c-0.3-0.6-0.7-1.2-1.3-1.7c-0.6-0.5-1.4-0.9-2.4-1.2c-1-0.3-2.1-0.4-3.5-0.4
			c-2.5,0-4.5,0.6-6,1.8c-1.5,1.2-2.3,3.1-2.5,5.5h-2c0.1-3,1.1-5.3,2.9-6.8c1.8-1.5,4.4-2.3,7.7-2.3s5.7,0.7,7.3,2
			c1.5,1.3,2.3,3,2.3,5.1v16c0,0.4,0,0.8,0,1.2c0,0.4,0.1,0.8,0.2,1.1c0.1,0.3,0.3,0.6,0.5,0.8c0.2,0.2,0.6,0.3,1.1,0.3
			c0.4,0,0.9-0.1,1.5-0.2v1.7c-0.5,0.1-1.1,0.2-1.7,0.2c-0.8,0-1.5-0.1-2-0.3c-0.5-0.2-0.8-0.5-1.1-0.9c-0.3-0.4-0.4-0.8-0.5-1.3
			c-0.1-0.5-0.1-1-0.1-1.6V345.7z M197.5,335.5c-0.5,0.6-1.3,1-2.3,1.2c-1,0.2-2.2,0.4-3.4,0.5l-3.4,0.3c-1,0.1-2,0.3-3,0.5
			c-1,0.2-1.9,0.5-2.7,1s-1.5,1.1-2,1.9c-0.5,0.8-0.7,1.8-0.7,3.1c0,2,0.6,3.5,1.9,4.5c1.3,1,3.1,1.5,5.3,1.5c2.3,0,4.2-0.4,5.5-1.3
			c1.4-0.8,2.4-1.8,3.1-2.9c0.7-1.1,1.2-2.1,1.4-3.2c0.2-1,0.3-1.7,0.3-2.1V335.5z"/>
		<path fill="#FFFFFF" d="M208,329.8h0.2c0.2-0.9,0.7-1.7,1.4-2.5c0.7-0.8,1.5-1.5,2.4-2c0.9-0.6,2-1,3.2-1.3
			c1.2-0.3,2.4-0.4,3.6-0.4v2c-1.1-0.1-2.3,0-3.7,0.3c-1.4,0.4-2.7,1.1-3.9,2.4c-0.5,0.5-0.9,1.1-1.3,1.6c-0.4,0.5-0.7,1.1-0.9,1.7
			c-0.2,0.6-0.4,1.3-0.6,2c-0.1,0.8-0.2,1.6-0.3,2.7v15.1h-2v-27.5h2V329.8z"/>
		<path fill="#FFFFFF" d="M241,332.2c-0.1-1.2-0.4-2.3-0.9-3.2c-0.5-0.9-1.2-1.7-2-2.3c-0.8-0.6-1.8-1.1-2.9-1.4
			c-1.1-0.3-2.3-0.5-3.5-0.5c-1.7,0-3.2,0.3-4.6,1c-1.3,0.7-2.4,1.6-3.3,2.8c-0.9,1.2-1.6,2.5-2,4c-0.5,1.5-0.7,3-0.7,4.6
			c0,1.9,0.2,3.6,0.6,5.1c0.4,1.6,1.1,2.9,2,4.1c0.9,1.2,2,2.1,3.3,2.7c1.3,0.6,2.9,1,4.7,1c1.3,0,2.5-0.2,3.6-0.6
			c1.1-0.4,2.1-1,2.9-1.8c0.8-0.8,1.5-1.7,2.1-2.7c0.5-1.1,0.9-2.2,1.1-3.5h2c-0.2,1.6-0.7,3.1-1.3,4.4c-0.7,1.3-1.5,2.4-2.6,3.2
			c-1,0.9-2.2,1.5-3.5,2c-1.3,0.5-2.7,0.7-4.2,0.7c-2.2,0-4.2-0.4-5.8-1.2s-2.9-1.9-3.9-3.2c-1-1.4-1.8-2.9-2.2-4.7
			s-0.7-3.6-0.7-5.5c0-1.9,0.3-3.7,0.8-5.5c0.6-1.7,1.4-3.2,2.4-4.5c1.1-1.3,2.4-2.3,4-3.1c1.6-0.7,3.4-1.1,5.4-1.1
			c1.5,0,2.9,0.2,4.2,0.6c1.3,0.4,2.5,0.9,3.5,1.7c1,0.8,1.8,1.7,2.5,2.9c0.6,1.2,1,2.5,1.2,4H241z"/>
		<path fill="#FFFFFF" d="M250.1,312.9v16.6h0.1c0.4-1,0.9-2,1.5-2.8c0.7-0.8,1.4-1.5,2.3-2.1c0.9-0.6,1.8-1,2.9-1.3
			c1-0.3,2.1-0.4,3.2-0.4c1.6,0,3,0.2,4.1,0.6c1.1,0.4,2,0.9,2.8,1.6c0.7,0.6,1.3,1.4,1.7,2.2c0.4,0.8,0.7,1.6,0.9,2.4
			c0.2,0.8,0.3,1.6,0.3,2.4c0,0.8,0.1,1.4,0.1,2v17h-2v-17.4c0-0.7-0.1-1.5-0.2-2.6c-0.1-1-0.4-2-0.9-3c-0.5-0.9-1.3-1.8-2.4-2.4
			c-1.1-0.7-2.5-1-4.4-1c-1.6,0-3,0.3-4.2,0.9c-1.2,0.6-2.2,1.4-3.1,2.4s-1.5,2.2-2,3.6c-0.4,1.4-0.7,3-0.7,4.6v14.9h-2v-38.2H250.1
			z"/>
	</g>
	<g>
		<path fill="#FFFFFF" d="M446.2,312.9h2.6l-15.4,22.2v16h-2.4v-16l-15.3-22.2h2.7l13.8,20.2L446.2,312.9z"/>
		<path fill="#FFFFFF" d="M443.9,337.4c0-2,0.3-3.8,0.8-5.5c0.6-1.7,1.4-3.3,2.4-4.6c1.1-1.3,2.4-2.4,4-3.1c1.6-0.8,3.4-1.2,5.4-1.2
			c2,0,3.8,0.4,5.4,1.2c1.6,0.8,2.9,1.8,4,3.1c1.1,1.3,1.9,2.8,2.4,4.6c0.6,1.7,0.8,3.6,0.8,5.5c0,2-0.3,3.8-0.8,5.6
			c-0.6,1.8-1.4,3.3-2.4,4.6c-1.1,1.3-2.4,2.3-4,3.1c-1.6,0.8-3.4,1.2-5.4,1.2c-2,0-3.8-0.4-5.4-1.2c-1.6-0.8-2.9-1.8-4-3.1
			c-1.1-1.3-1.9-2.8-2.4-4.6C444.2,341.2,443.9,339.4,443.9,337.4z M446,337.4c0,1.6,0.2,3.2,0.7,4.7c0.5,1.5,1.1,2.9,2,4
			c0.9,1.2,2,2.1,3.3,2.8c1.3,0.7,2.8,1,4.6,1s3.2-0.3,4.6-1c1.3-0.7,2.4-1.6,3.3-2.8c0.9-1.2,1.6-2.5,2-4c0.5-1.5,0.7-3.1,0.7-4.7
			c0-1.6-0.2-3.2-0.7-4.7c-0.5-1.5-1.1-2.9-2-4c-0.9-1.2-2-2.1-3.3-2.8c-1.3-0.7-2.8-1-4.6-1s-3.2,0.3-4.6,1
			c-1.3,0.7-2.4,1.6-3.3,2.8c-0.9,1.2-1.6,2.5-2,4C446.2,334.2,446,335.8,446,337.4z"/>
		<path fill="#FFFFFF" d="M495.8,351.2h-2v-5.9h-0.1c-0.4,1-0.9,2-1.5,2.8c-0.7,0.8-1.4,1.5-2.3,2.1c-0.9,0.6-1.8,1-2.9,1.3
			c-1,0.3-2.1,0.4-3.2,0.4c-1.6,0-3-0.2-4.1-0.6c-1.1-0.4-2-0.9-2.8-1.6c-0.7-0.6-1.3-1.4-1.7-2.2c-0.4-0.8-0.7-1.6-0.9-2.4
			c-0.2-0.8-0.3-1.6-0.3-2.4c0-0.8-0.1-1.4-0.1-2v-17h2v17.4c0,0.7,0.1,1.6,0.2,2.6c0.1,1,0.4,2,0.9,2.9c0.5,0.9,1.3,1.8,2.3,2.4
			c1,0.7,2.5,1,4.4,1c1.5,0,2.9-0.3,4.2-0.9s2.3-1.4,3.1-2.4s1.5-2.2,2-3.6c0.4-1.4,0.7-3,0.7-4.6v-14.9h2V351.2z"/>
		<path fill="#FFFFFF" d="M517,312.9h2.4v36.2h21.7v2h-24V312.9z"/>
		<path fill="#FFFFFF" d="M543.2,337.7v0.3c0,1.6,0.2,3.1,0.6,4.6s1.1,2.8,1.9,3.9c0.8,1.1,1.9,2,3.2,2.6c1.3,0.6,2.7,1,4.4,1
			c2.8,0,4.9-0.7,6.6-2.2c1.6-1.4,2.7-3.5,3.3-6h2c-0.6,3.2-1.9,5.7-3.9,7.4c-2,1.7-4.7,2.6-8,2.6c-2,0-3.8-0.4-5.3-1.1
			s-2.8-1.7-3.8-3c-1-1.3-1.8-2.8-2.3-4.5c-0.5-1.7-0.8-3.6-0.8-5.6c0-1.9,0.3-3.8,0.8-5.5c0.5-1.8,1.3-3.3,2.3-4.7
			c1-1.3,2.3-2.4,3.9-3.2c1.6-0.8,3.4-1.2,5.5-1.2c1.9,0,3.6,0.4,5.1,1.1s2.7,1.7,3.7,2.9c1,1.2,1.8,2.7,2.3,4.3
			c0.5,1.6,0.8,3.4,0.8,5.2c0,0.2,0,0.4,0,0.6c0,0.2,0,0.4,0,0.6H543.2z M563.5,335.9c-0.1-1.5-0.3-2.9-0.8-4.3
			c-0.4-1.3-1.1-2.5-1.9-3.5c-0.8-1-1.9-1.8-3.1-2.4c-1.2-0.6-2.6-0.9-4.1-0.9c-1.6,0-3.1,0.3-4.4,0.9c-1.3,0.6-2.3,1.4-3.2,2.5
			c-0.9,1-1.5,2.2-2,3.6c-0.5,1.4-0.8,2.8-0.9,4.2H563.5z"/>
		<path fill="#FFFFFF" d="M588.5,345.7h-0.1c-0.3,0.8-0.8,1.6-1.4,2.3c-0.6,0.7-1.3,1.4-2.2,2c-0.9,0.6-1.9,1-3,1.3
			c-1.1,0.3-2.3,0.5-3.6,0.5c-2.9,0-5.2-0.6-6.8-1.9c-1.6-1.3-2.4-3.2-2.4-5.9c0-1.6,0.3-2.9,1-3.9c0.6-1,1.5-1.8,2.4-2.4
			c1-0.6,2.1-1,3.3-1.3c1.2-0.2,2.3-0.4,3.5-0.5l3.2-0.3c1.5-0.1,2.6-0.3,3.5-0.5c0.8-0.2,1.5-0.6,1.9-1c0.4-0.4,0.7-0.9,0.8-1.6
			c0.1-0.6,0.2-1.4,0.2-2.4c0-0.8-0.1-1.4-0.4-2.1s-0.7-1.2-1.3-1.7s-1.4-0.9-2.4-1.2c-1-0.3-2.1-0.4-3.5-0.4c-2.5,0-4.5,0.6-6,1.8
			c-1.5,1.2-2.3,3.1-2.5,5.5h-2c0.1-3,1.1-5.3,2.9-6.8s4.4-2.3,7.7-2.3c3.3,0,5.7,0.7,7.3,2c1.5,1.3,2.3,3,2.3,5.1v16
			c0,0.4,0,0.8,0,1.2c0,0.4,0.1,0.8,0.2,1.1s0.3,0.6,0.5,0.8c0.2,0.2,0.6,0.3,1.1,0.3c0.4,0,0.9-0.1,1.5-0.2v1.7
			c-0.5,0.1-1.1,0.2-1.7,0.2c-0.8,0-1.5-0.1-2-0.3s-0.8-0.5-1.1-0.9c-0.3-0.4-0.4-0.8-0.5-1.3c-0.1-0.5-0.1-1-0.1-1.6V345.7z
			 M588.5,335.5c-0.5,0.6-1.3,1-2.3,1.2c-1,0.2-2.2,0.4-3.4,0.5l-3.4,0.3c-1,0.1-2,0.3-3,0.5c-1,0.2-1.9,0.5-2.7,1
			c-0.8,0.5-1.5,1.1-2,1.9s-0.7,1.8-0.7,3.1c0,2,0.6,3.5,1.9,4.5c1.3,1,3.1,1.5,5.3,1.5c2.3,0,4.2-0.4,5.5-1.3
			c1.4-0.8,2.4-1.8,3.1-2.9c0.7-1.1,1.2-2.1,1.4-3.2c0.2-1,0.3-1.7,0.3-2.1V335.5z"/>
		<path fill="#FFFFFF" d="M599.1,329.8h0.2c0.2-0.9,0.7-1.7,1.4-2.5s1.5-1.5,2.4-2c0.9-0.6,2-1,3.2-1.3c1.2-0.3,2.4-0.4,3.6-0.4v2
			c-1.1-0.1-2.3,0-3.7,0.3c-1.4,0.4-2.7,1.1-3.9,2.4c-0.5,0.5-0.9,1.1-1.3,1.6c-0.4,0.5-0.7,1.1-0.9,1.7c-0.2,0.6-0.4,1.3-0.6,2
			c-0.1,0.8-0.2,1.6-0.3,2.7v15.1h-2v-27.5h2V329.8z"/>
		<path fill="#FFFFFF" d="M612,323.6h2v5.9h0.1c0.4-1,0.9-2,1.5-2.8c0.7-0.8,1.4-1.5,2.3-2.1s1.8-1,2.9-1.3c1-0.3,2.1-0.4,3.2-0.4
			c1.6,0,3,0.2,4.1,0.6c1.1,0.4,2,0.9,2.8,1.6c0.7,0.6,1.3,1.4,1.7,2.2c0.4,0.8,0.7,1.6,0.9,2.4c0.2,0.8,0.3,1.6,0.3,2.4
			c0,0.8,0.1,1.4,0.1,2v17h-2v-17.4c0-0.7-0.1-1.5-0.2-2.6c-0.1-1-0.4-2-0.9-3c-0.5-0.9-1.3-1.8-2.4-2.4c-1.1-0.7-2.5-1-4.4-1
			c-1.6,0-3,0.3-4.2,0.9c-1.2,0.6-2.2,1.4-3.1,2.4c-0.9,1-1.5,2.2-2,3.6c-0.4,1.4-0.7,3-0.7,4.6v14.9h-2V323.6z"/>
	</g>
	<g>
		<path fill="#FFFFFF" d="M843.2,312.9h2.6l-15.4,22.2v16h-2.4v-16l-15.3-22.2h2.7l13.8,20.2L843.2,312.9z"/>
		<path fill="#FFFFFF" d="M841,337.4c0-2,0.3-3.8,0.8-5.5c0.6-1.7,1.4-3.3,2.4-4.6c1.1-1.3,2.4-2.4,4-3.1c1.6-0.8,3.4-1.2,5.4-1.2
			c2,0,3.8,0.4,5.4,1.2c1.6,0.8,2.9,1.8,4,3.1c1.1,1.3,1.9,2.8,2.4,4.6c0.6,1.7,0.8,3.6,0.8,5.5c0,2-0.3,3.8-0.8,5.6
			c-0.6,1.8-1.4,3.3-2.4,4.6c-1.1,1.3-2.4,2.3-4,3.1s-3.4,1.2-5.4,1.2c-2,0-3.8-0.4-5.4-1.2s-2.9-1.8-4-3.1
			c-1.1-1.3-1.9-2.8-2.4-4.6C841.2,341.2,841,339.4,841,337.4z M843,337.4c0,1.6,0.2,3.2,0.7,4.7c0.5,1.5,1.1,2.9,2,4
			c0.9,1.2,2,2.1,3.3,2.8c1.3,0.7,2.8,1,4.6,1s3.2-0.3,4.6-1c1.3-0.7,2.4-1.6,3.3-2.8c0.9-1.2,1.6-2.5,2-4c0.5-1.5,0.7-3.1,0.7-4.7
			c0-1.6-0.2-3.2-0.7-4.7c-0.5-1.5-1.1-2.9-2-4c-0.9-1.2-2-2.1-3.3-2.8c-1.3-0.7-2.8-1-4.6-1s-3.2,0.3-4.6,1
			c-1.3,0.7-2.4,1.6-3.3,2.8c-0.9,1.2-1.6,2.5-2,4C843.2,334.2,843,335.8,843,337.4z"/>
		<path fill="#FFFFFF" d="M892.8,351.2h-2v-5.9h-0.1c-0.4,1-0.9,2-1.5,2.8c-0.7,0.8-1.4,1.5-2.3,2.1c-0.9,0.6-1.8,1-2.9,1.3
			c-1,0.3-2.1,0.4-3.2,0.4c-1.6,0-3-0.2-4.1-0.6c-1.1-0.4-2-0.9-2.8-1.6c-0.7-0.6-1.3-1.4-1.7-2.2c-0.4-0.8-0.7-1.6-0.9-2.4
			c-0.2-0.8-0.3-1.6-0.3-2.4c0-0.8-0.1-1.4-0.1-2v-17h2v17.4c0,0.7,0.1,1.6,0.2,2.6s0.4,2,0.9,2.9c0.5,0.9,1.3,1.8,2.3,2.4
			c1,0.7,2.5,1,4.4,1c1.5,0,2.9-0.3,4.2-0.9c1.2-0.6,2.3-1.4,3.1-2.4c0.9-1,1.5-2.2,2-3.6c0.4-1.4,0.7-3,0.7-4.6v-14.9h2V351.2z"/>
		<path fill="#FFFFFF" d="M912.6,332.1c0-2.8,0.4-5.4,1.2-7.8c0.8-2.4,2-4.6,3.6-6.4c1.6-1.8,3.5-3.2,5.7-4.3c2.3-1,4.8-1.6,7.7-1.6
			c2.2,0,4.2,0.3,5.8,0.9s3,1.3,4.2,2.2s2,1.8,2.8,2.9c0.7,1,1.3,2,1.6,2.9c0.4,0.9,0.6,1.7,0.8,2.4c0.1,0.7,0.2,1,0.2,1.1h-2.4
			c-0.2-1.6-0.8-3-1.6-4.3s-1.8-2.3-2.9-3.2c-1.2-0.9-2.5-1.6-3.9-2c-1.4-0.5-3-0.7-4.6-0.7c-2.5,0-4.7,0.5-6.7,1.4s-3.6,2.3-5,3.9
			c-1.4,1.6-2.4,3.5-3.1,5.7s-1.1,4.5-1.1,7s0.4,4.8,1.1,7c0.7,2.2,1.8,4.1,3.1,5.7c1.4,1.6,3,2.9,5,3.9c2,1,4.2,1.4,6.7,1.4
			c1.9,0,3.6-0.4,5.2-1.2c1.6-0.8,3-1.8,4.3-3.1s2.2-2.7,2.9-4.4c0.7-1.7,1.2-3.4,1.3-5.2h2.4c-0.2,2.3-0.8,4.4-1.7,6.3
			c-0.9,1.9-2.1,3.6-3.5,5c-1.4,1.4-3,2.5-4.9,3.3c-1.9,0.8-3.8,1.2-5.9,1.2c-2.9,0-5.4-0.5-7.7-1.6c-2.3-1-4.2-2.5-5.7-4.3
			s-2.7-3.9-3.6-6.4C913,337.5,912.6,334.8,912.6,332.1z"/>
		<path fill="#FFFFFF" d="M950.1,337.4c0-2,0.3-3.8,0.8-5.5c0.6-1.7,1.4-3.3,2.4-4.6c1.1-1.3,2.4-2.4,4-3.1c1.6-0.8,3.4-1.2,5.4-1.2
			s3.8,0.4,5.4,1.2c1.6,0.8,2.9,1.8,4,3.1c1.1,1.3,1.9,2.8,2.4,4.6c0.6,1.7,0.8,3.6,0.8,5.5c0,2-0.3,3.8-0.8,5.6
			c-0.6,1.8-1.4,3.3-2.4,4.6c-1.1,1.3-2.4,2.3-4,3.1c-1.6,0.8-3.4,1.2-5.4,1.2s-3.8-0.4-5.4-1.2c-1.6-0.8-2.9-1.8-4-3.1
			c-1.1-1.3-1.9-2.8-2.4-4.6C950.4,341.2,950.1,339.4,950.1,337.4z M952.2,337.4c0,1.6,0.2,3.2,0.7,4.7c0.5,1.5,1.1,2.9,2,4
			c0.9,1.2,2,2.1,3.3,2.8s2.8,1,4.6,1s3.2-0.3,4.6-1c1.3-0.7,2.4-1.6,3.3-2.8c0.9-1.2,1.6-2.5,2-4c0.5-1.5,0.7-3.1,0.7-4.7
			c0-1.6-0.2-3.2-0.7-4.7c-0.5-1.5-1.1-2.9-2-4c-0.9-1.2-2-2.1-3.3-2.8c-1.3-0.7-2.8-1-4.6-1s-3.2,0.3-4.6,1s-2.4,1.6-3.3,2.8
			c-0.9,1.2-1.6,2.5-2,4C952.4,334.2,952.2,335.8,952.2,337.4z"/>
		<path fill="#FFFFFF" d="M1001.4,345.3h-0.1c-1.1,2.2-2.6,3.8-4.3,4.9s-3.8,1.6-6.3,1.6c-2.1,0-3.9-0.4-5.4-1.2
			c-1.5-0.8-2.7-1.8-3.7-3.2s-1.7-2.8-2.1-4.6c-0.5-1.7-0.7-3.5-0.7-5.4c0-2,0.2-3.9,0.8-5.7s1.3-3.3,2.3-4.6c1-1.3,2.3-2.3,3.8-3.1
			c1.5-0.7,3.3-1.1,5.4-1.1c1.1,0,2.2,0.2,3.3,0.5c1.1,0.3,2.1,0.7,3,1.3c0.9,0.6,1.7,1.3,2.4,2.1c0.7,0.9,1.2,1.8,1.6,2.9h0.1
			v-16.9h2v38.2h-2V345.3z M991.2,350.1c1.7,0,3.3-0.4,4.5-1.1c1.3-0.7,2.3-1.7,3.2-2.8c0.8-1.2,1.5-2.5,1.9-4
			c0.4-1.5,0.6-3.1,0.6-4.6c0-1.6-0.2-3.2-0.6-4.7c-0.4-1.5-1-2.9-1.8-4.1c-0.8-1.2-1.9-2.2-3.2-2.9c-1.3-0.7-2.8-1.1-4.6-1.1
			c-1.8,0-3.4,0.3-4.7,1c-1.3,0.7-2.3,1.6-3.2,2.8c-0.8,1.2-1.4,2.5-1.8,4.1s-0.6,3.1-0.6,4.8c0,1.6,0.2,3.2,0.6,4.7
			c0.4,1.5,1,2.9,1.9,4c0.8,1.2,1.9,2.1,3.2,2.8C987.9,349.7,989.4,350.1,991.2,350.1z"/>
		<path fill="#FFFFFF" d="M1010.7,337.7v0.3c0,1.6,0.2,3.1,0.6,4.6s1.1,2.8,1.9,3.9c0.8,1.1,1.9,2,3.2,2.6c1.3,0.6,2.7,1,4.4,1
			c2.8,0,4.9-0.7,6.6-2.2c1.6-1.4,2.7-3.5,3.3-6h2c-0.6,3.2-1.9,5.7-3.9,7.4c-2,1.7-4.7,2.6-8,2.6c-2,0-3.8-0.4-5.3-1.1
			s-2.8-1.7-3.8-3c-1-1.3-1.8-2.8-2.3-4.5c-0.5-1.7-0.8-3.6-0.8-5.6c0-1.9,0.3-3.8,0.8-5.5c0.5-1.8,1.3-3.3,2.3-4.7
			c1-1.3,2.3-2.4,3.9-3.2c1.6-0.8,3.4-1.2,5.5-1.2c1.9,0,3.6,0.4,5.1,1.1s2.7,1.7,3.7,2.9c1,1.2,1.8,2.7,2.3,4.3
			c0.5,1.6,0.8,3.4,0.8,5.2c0,0.2,0,0.4,0,0.6c0,0.2,0,0.4,0,0.6H1010.7z M1031,335.9c-0.1-1.5-0.3-2.9-0.8-4.3
			c-0.4-1.3-1.1-2.5-1.9-3.5c-0.8-1-1.9-1.8-3.1-2.4c-1.2-0.6-2.6-0.9-4.1-0.9c-1.6,0-3.1,0.3-4.4,0.9c-1.3,0.6-2.3,1.4-3.2,2.5
			c-0.9,1-1.5,2.2-2,3.6c-0.5,1.4-0.8,2.8-0.9,4.2H1031z"/>
	</g>
</g>
<g id="search">
	<circle id="_x31_" fill="#F05236" cx="143.9" cy="167.7" r="135.3"/>
	<g>
		<defs>
			
				<rect id="SVGID_1_" x="86.1" y="156.8" transform="matrix(0.7089 0.7053 -0.7053 0.7089 212.567 -76.6524)" width="226.2" height="124.8"/>
		</defs>
		<clipPath id="SVGID_2_">
			<use xlink:href="#SVGID_1_"  overflow="visible"/>
		</clipPath>
		<circle clip-path="url(#SVGID_2_)" fill="#E53427" cx="143.9" cy="167.7" r="135.3"/>
	</g>
	<path fill="#423A42" d="M202.5,246.7l-43.5-43.2c-5.9-5.9-6-15.6-0.1-21.5l2-2c5.9-5.9,15.6-6,21.5-0.1l43.5,43.2
		c5.9,5.9,6,15.6,0.1,21.5l-2,2C218.1,252.6,208.4,252.6,202.5,246.7z"/>
	<g>
		<defs>
			<path id="SVGID_3_" d="M136.4,204.6l-6-5.9c-12.7-12.6-12.7-33.2-0.2-45.9l2.1-2.1c12.6-12.7,33.2-12.7,45.9-0.2l6,5.9
				c12.7,12.6,12.7,33.2,0.2,45.9l-2.1,2.1C169.8,217.1,149.1,217.2,136.4,204.6z"/>
		</defs>
		<clipPath id="SVGID_4_">
			<use xlink:href="#SVGID_3_"  overflow="visible"/>
		</clipPath>
		<path clip-path="url(#SVGID_4_)" fill="#6F6269" d="M203.2,247.4l-44.9-44.6c-5.6-5.5-5.6-14.6-0.1-20.1l3.3-3.4
			c5.5-5.6,14.6-5.6,20.1-0.1l44.9,44.6c5.6,5.5,5.6,14.6,0.1,20.1l-3.3,3.4C217.8,252.8,208.7,252.9,203.2,247.4z"/>
	</g>
	<circle fill="#423A42" cx="124.3" cy="144.2" r="63"/>
	<circle fill="#AFE1F9" cx="124.3" cy="144.2" r="44.5"/>
	<path fill="#F1F2F2" d="M103.9,122.9c9-7.8,17.6-9,21.1-8c3.2,0.9,3.5,3.2,3.7,4.9c0.1,1.4,0,3.3-3.6,4.3c-3.9,1.1-9,0.4-14.2,5.7
		c-6.1,6.2-6,13.3-6.5,15.5c-0.6,3-2.3,3.9-4.3,4.1c-2.4,0.3-4.6-1.4-5.3-2.4C93,144.1,95.2,131.9,103.9,122.9z"/>
</g>
<g id="watch">
	<circle id="_x32_" fill="#F05236" cx="537.6" cy="167.7" r="135.3"/>
	<g>
		<defs>
			<path id="SVGID_5_" d="M596.1,376.1L453.6,234.2l139.8-124.7c5.2,5.1,17-12.3,22.2-7.2c42.4,42.1,84.7,84.3,127.1,126.4
				C693.8,277.9,645,327,596.1,376.1z"/>
		</defs>
		<clipPath id="SVGID_6_">
			<use xlink:href="#SVGID_5_"  overflow="visible"/>
		</clipPath>
		<circle clip-path="url(#SVGID_6_)" fill="#E53427" cx="537.6" cy="167.5" r="135.3"/>
		<path clip-path="url(#SVGID_6_)" fill="none" d="M450.5,83.1"/>
	</g>
	<path fill="#EFF5F5" d="M612,237.8H458.5c-3.1,0-5.7-2.6-5.7-5.7v-17.2c0-0.2,0.2-0.3,0.3-0.3h164.4c0.1,0,0.2,0.1,0.2,0.2v17.4
		C617.7,235.3,615.1,237.8,612,237.8z"/>
	<path fill="#30343F" d="M617.6,214.6H452.9c-0.1,0-0.2-0.1-0.2-0.2v-107c0-3.1,2.5-5.6,5.6-5.6h154c3,0,5.4,2.4,5.4,5.4v107.2
		C617.7,214.5,617.6,214.6,617.6,214.6z"/>
	<path fill="#BAD1D8" d="M610.6,229.1H461.3c-1.4,0-2.5-1.1-2.5-2.5l0,0c0-1.4,1.1-2.5,2.5-2.5h149.4c1.4,0,2.5,1.1,2.5,2.5l0,0
		C613.2,228,612,229.1,610.6,229.1z"/>
	<path fill="#EB232A" d="M527,229.1h-65.8c-1.4,0-2.5-1.1-2.5-2.5l0,0c0-1.4,1.1-2.5,2.5-2.5H527c1.4,0,2.5,1.1,2.5,2.5l0,0
		C529.6,228,528.4,229.1,527,229.1z"/>
	<g>
		<defs>
			<path id="SVGID_7_" d="M576.8,260.3l-73.8-73.2l55.1-50.7c2,2,9.9-2.6,9.9-2.6c22.6,22.4,45.2,44.8,67.7,67.2
				C616,220.8,596.4,240.5,576.8,260.3z"/>
		</defs>
		<clipPath id="SVGID_8_">
			<use xlink:href="#SVGID_7_"  overflow="visible"/>
		</clipPath>
		<path clip-path="url(#SVGID_8_)" fill="#252B34" d="M617.6,214.6H452.9c-0.1,0-0.2-0.1-0.2-0.2v-107c0-3.1,2.5-5.6,5.6-5.6h154
			c3,0,5.4,2.4,5.4,5.4v107.2C617.7,214.5,617.6,214.6,617.6,214.6z"/>
	</g>
	<path fill="#474C54" d="M567.8,188.2H505c-1.6,0-2.9-1.3-2.9-2.9v-48.6c0-1.6,1.3-2.9,2.9-2.9h62.8L567.8,188.2
		C567.9,188.2,567.8,188.2,567.8,188.2z"/>
	<g>
		<defs>
			
				<rect id="SVGID_9_" x="499.7" y="154.8" transform="matrix(-0.765 0.644 -0.644 -0.765 1099.4894 -28.9171)" width="110.7" height="62.6"/>
		</defs>
		<clipPath id="SVGID_10_">
			<use xlink:href="#SVGID_9_"  overflow="visible"/>
		</clipPath>
		<path clip-path="url(#SVGID_10_)" fill="#3E434B" d="M567.8,188.2H505c-1.6,0-2.9-1.3-2.9-2.9v-48.6c0-1.6,1.3-2.9,2.9-2.9h62.8
			L567.8,188.2C567.9,188.2,567.8,188.2,567.8,188.2z"/>
	</g>
	<g>
		<defs>
			<path id="SVGID_11_" d="M557.5,209.3l-32.9-33.5l20.6-12.5c1.8,1.9,4.1-4.4,5.9-2.5c9.1,9.3,18.3,18.6,27.4,27.9
				C571.5,195.5,564.5,202.4,557.5,209.3z"/>
		</defs>
		<clipPath id="SVGID_12_">
			<use xlink:href="#SVGID_11_"  overflow="visible"/>
		</clipPath>
		<path clip-path="url(#SVGID_12_)" fill="#363B46" d="M567.8,188.2H505c-1.6,0-2.9-1.3-2.9-2.9v-48.6c0-1.6,1.3-2.9,2.9-2.9h62.8
			L567.8,188.2C567.9,188.2,567.8,188.2,567.8,188.2z"/>
	</g>
	<path fill="#E7ECF4" d="M526.8,148c2.3,1.1,16,8.4,23.8,12.2c0.8,0.4,1.3,1.1,1.3,2c0,1.2-0.6,1.8-1.4,2.2
		c-3.3,1.8-19.1,10-23.5,12.2c-0.3,0.2-1.3,0.4-2.1-0.2c-0.6-0.4-1.1-1.3-1.1-1.8c0-7.7,0-25,0-25c0-0.4,0.2-1.3,0.9-1.7
		C525.4,147.5,526.5,147.9,526.8,148z"/>
</g>
<g id="Code">
	<circle fill="#F05236" cx="924.1" cy="160.9" r="135.3"/>
	<g>
		<defs>
			<path id="SVGID_13_" d="M984,368.3L841.5,226.5l141.1-126c5.2,5.1,17.2-12.4,22.3-7.3c42.4,42.1,84.7,84.3,127.1,126.4
				C1082.6,269.2,1033.3,318.8,984,368.3z"/>
		</defs>
		<clipPath id="SVGID_14_">
			<use xlink:href="#SVGID_13_"  overflow="visible"/>
		</clipPath>
		<circle clip-path="url(#SVGID_14_)" fill="#E53427" cx="924.1" cy="160.8" r="135.3"/>
		<path clip-path="url(#SVGID_14_)" fill="none" d="M837,76.4"/>
	</g>
	<path fill="#283947" d="M1000.9,227.3H844.8c-2.8,0-5.1-2.3-5.1-5.1V96.5c0-2.8,2.3-5.1,5.1-5.1h156.1c2.8,0,5.1,2.3,5.1,5.1v125.7
		C1006,225,1003.7,227.3,1000.9,227.3z"/>
	<path fill="#EFF5F5" d="M1000.8,223.2H845.1c-0.5,0-0.9-0.4-0.9-0.9v-103c0-0.5,0.4-0.9,0.9-0.9h155.8c0.5,0,0.9,0.4,0.9,0.9v103
		C1001.7,222.8,1001.3,223.2,1000.8,223.2z"/>
	<path fill="#C13E27" d="M986.8,140h-128c-2.8,0-5.2-2.3-5.2-5.2v0c0-2.8,2.3-5.2,5.2-5.2h128c2.8,0,5.2,2.3,5.2,5.2v0
		C992,137.7,989.7,140,986.8,140z"/>
	<circle fill="#E35C49" cx="856" cy="104.6" r="4"/>
	<circle fill="#F2CB4B" cx="867.6" cy="104.6" r="4"/>
	<circle fill="#FFFFFF" cx="879.1" cy="104.6" r="4"/>
	<path fill="#E47C3B" d="M937.6,153.4L912,199.5c-0.8,1.5-2.7,2-4.2,1.2l0,0c-1.5-0.8-2-2.7-1.2-4.2l25.6-46.1
		c0.8-1.5,2.7-2,4.2-1.2l0,0C937.9,150,938.5,151.9,937.6,153.4z"/>
	<path fill="#3BB29C" d="M900,156.8l-24.4,19.3c-1.6,1.3-4,1-5.3-0.6l0,0c-1.3-1.6-1-4,0.6-5.3l24.4-19.3c1.6-1.3,4-1,5.3,0.6l0,0
		C901.9,153.1,901.6,155.5,900,156.8z"/>
	<path fill="#3BB29C" d="M895.4,195.5l-24.8-18.8c-1.7-1.3-2-3.6-0.7-5.3v0c1.3-1.7,3.6-2,5.3-0.7l24.8,18.8c1.7,1.3,2,3.6,0.7,5.3
		v0C899.4,196.5,897,196.8,895.4,195.5z"/>
	<path fill="#3BB29C" d="M944.1,156.8l24.4,19.3c1.6,1.3,4,1,5.3-0.6l0,0c1.3-1.6,1-4-0.6-5.3l-24.4-19.3c-1.6-1.3-4-1-5.3,0.6l0,0
		C942.2,153.1,942.4,155.5,944.1,156.8z"/>
	<path fill="#3BB29C" d="M948.7,195.5l24.8-18.8c1.7-1.3,2-3.6,0.7-5.3v0c-1.3-1.7-3.6-2-5.3-0.7l-24.8,18.8c-1.7,1.3-2,3.6-0.7,5.3
		v0C944.7,196.5,947,196.8,948.7,195.5z"/>
</g>
<g id="points">
	<circle fill="#FFFFFF" cx="309" cy="165.5" r="5.3"/>
	<circle fill="#FFFFFF" cx="326.9" cy="165.5" r="5.3"/>
	<circle fill="#FFFFFF" cx="344.8" cy="165.5" r="5.3"/>
	<circle fill="#FFFFFF" cx="362.8" cy="165.5" r="5.3"/>
	<circle fill="#FFFFFF" cx="381" cy="165.5" r="5.3"/>
	<circle fill="#FFFFFF" cx="691" cy="167.7" r="5.3"/>
	<circle fill="#FFFFFF" cx="709" cy="167.7" r="5.3"/>
	<circle fill="#FFFFFF" cx="726.9" cy="167.7" r="5.3"/>
	<circle fill="#FFFFFF" cx="745" cy="167.7" r="5.3"/>
	<circle fill="#FFFFFF" cx="763" cy="167.7" r="5.3"/>
</g>
</svg>
