<?xml version="1.0" encoding="utf-8"?>
<!-- Generator: Adobe Illustrator 18.1.1, SVG Export Plug-In . SVG Version: 6.00 Build 0)  -->
<svg version="1.1" id="Layer_1" xmlns="http://www.w3.org/2000/svg" xmlns:xlink="http://www.w3.org/1999/xlink" x="0px" y="0px"
	 viewBox="0 0 400 100" enable-background="new 0 0 400 100" xml:space="preserve">
<g>
	<path fill="#FFFFFF" d="M64.1,17.6l-24,34.3v25h-1.7v-25L14.5,17.6h2.1l22.7,32.5l22.8-32.5H64.1z"/>
	<path fill="#FFFFFF" d="M65.1,52.3c0.7-2.2,1.8-4.1,3.2-5.8c1.4-1.6,3.2-2.9,5.3-3.9c2.1-0.9,4.5-1.4,7.3-1.4
		c2.8,0,5.2,0.5,7.3,1.4c2.1,0.9,3.8,2.2,5.3,3.9c1.4,1.6,2.5,3.6,3.2,5.8c0.7,2.2,1.1,4.6,1.1,7.2s-0.4,4.9-1.1,7.1
		c-0.7,2.2-1.8,4.1-3.2,5.8c-1.4,1.6-3.2,2.9-5.3,3.8c-2.1,0.9-4.5,1.4-7.3,1.4c-2.7,0-5.2-0.5-7.3-1.4c-2.1-0.9-3.9-2.2-5.3-3.8
		c-1.4-1.6-2.5-3.6-3.2-5.8C64.4,64.4,64,62,64,59.5S64.4,54.5,65.1,52.3z M70.9,65.1c0.6,1.6,1.3,3,2.3,4.1c1,1.1,2.1,1.9,3.5,2.5
		c1.3,0.6,2.7,0.9,4.2,0.9c1.5,0,2.9-0.3,4.2-0.9c1.3-0.6,2.5-1.4,3.5-2.5c1-1.1,1.8-2.5,2.3-4.1c0.6-1.6,0.8-3.5,0.8-5.6
		c0-2.1-0.3-4-0.8-5.6c-0.6-1.6-1.3-3-2.3-4.1c-1-1.1-2.1-2-3.5-2.6c-1.3-0.6-2.7-0.9-4.2-0.9c-1.5,0-2.9,0.3-4.2,0.9
		c-1.3,0.6-2.5,1.4-3.5,2.6c-1,1.1-1.8,2.5-2.3,4.1c-0.6,1.6-0.8,3.5-0.8,5.6C70.1,61.6,70.3,63.5,70.9,65.1z"/>
	<path fill="#FFFFFF" d="M127.9,76.9v-5.5h-0.1c-1.2,2.2-2.8,3.7-4.6,4.7c-1.9,1-4.1,1.5-6.7,1.5c-2.3,0-4.2-0.3-5.7-0.9
		c-1.5-0.6-2.8-1.5-3.7-2.6c-0.9-1.1-1.6-2.5-2-4c-0.4-1.5-0.6-3.3-0.6-5.1V42.1h5.7v23.6c0,2.2,0.6,3.9,1.9,5.1
		c1.3,1.3,3,1.9,5.2,1.9c1.7,0,3.3-0.3,4.5-0.8c1.3-0.5,2.3-1.3,3.2-2.3c0.9-1,1.5-2.1,1.9-3.5c0.4-1.3,0.6-2.8,0.6-4.3V42.1h5.7
		v34.8H127.9z"/>
	<path fill="#FFFFFF" d="M189.7,63.5c-1.4,3-3.2,5.6-5.4,7.8c-2.2,2.2-4.8,3.8-7.8,5.1c-3,1.2-6.4,1.8-10.1,1.8
		c-3.9,0-7.5-0.8-10.8-2.3c-3.3-1.5-6.1-3.6-8.5-6.3c-2.4-2.7-4.2-5.9-5.5-9.6c-1.3-3.7-2-7.8-2-12.2c0-3.6,0.5-7.3,1.5-11
		c1-3.7,2.6-7.1,4.9-10.2c2.2-3,5.1-5.5,8.6-7.5c3.5-1.9,7.8-2.9,12.9-2.9c3.9,0,7.4,0.7,10.3,2c2.9,1.3,5.4,2.9,7.3,4.9
		c2,2,3.4,4.1,4.4,6.3c1,2.2,1.5,4.2,1.6,6.1h-1.7c-0.2-2.2-0.8-4.3-1.9-6.3s-2.6-3.9-4.5-5.6c-1.9-1.7-4.2-3-6.8-4
		c-2.6-1-5.5-1.5-8.8-1.5c-4.9,0-9,1-12.3,2.9c-3.3,2-6,4.4-8.1,7.4c-2,3-3.5,6.2-4.4,9.7s-1.4,6.8-1.4,9.9c0,3.8,0.6,7.4,1.7,10.9
		c1.1,3.5,2.7,6.6,4.9,9.2c2.2,2.7,4.8,4.8,7.9,6.4c3.1,1.6,6.7,2.4,10.7,2.4c3.5,0,6.7-0.6,9.5-1.7c2.8-1.2,5.3-2.8,7.3-4.8
		c2-2,3.7-4.5,5-7.3c1.3-2.8,2.1-5.9,2.6-9.1h1.7C192.1,57.2,191.1,60.5,189.7,63.5z"/>
	<path fill="#FFFFFF" d="M198,52.3c0.7-2.2,1.8-4.1,3.2-5.8c1.4-1.6,3.2-2.9,5.3-3.9c2.1-0.9,4.5-1.4,7.3-1.4c2.8,0,5.2,0.5,7.3,1.4
		c2.1,0.9,3.8,2.2,5.3,3.9c1.4,1.6,2.5,3.6,3.2,5.8c0.7,2.2,1.1,4.6,1.1,7.2s-0.4,4.9-1.1,7.1c-0.7,2.2-1.8,4.1-3.2,5.8
		s-3.2,2.9-5.3,3.8s-4.5,1.4-7.3,1.4c-2.7,0-5.2-0.5-7.3-1.4c-2.1-0.9-3.9-2.2-5.3-3.8c-1.4-1.6-2.5-3.6-3.2-5.8
		c-0.7-2.2-1.1-4.6-1.1-7.1S197.3,54.5,198,52.3z M203.8,65.1c0.6,1.6,1.3,3,2.3,4.1c1,1.1,2.1,1.9,3.5,2.5c1.3,0.6,2.7,0.9,4.2,0.9
		s2.9-0.3,4.2-0.9c1.3-0.6,2.5-1.4,3.5-2.5c1-1.1,1.8-2.5,2.3-4.1c0.6-1.6,0.8-3.5,0.8-5.6c0-2.1-0.3-4-0.8-5.6
		c-0.6-1.6-1.3-3-2.3-4.1c-1-1.1-2.1-2-3.5-2.6c-1.3-0.6-2.7-0.9-4.2-0.9s-2.9,0.3-4.2,0.9c-1.3,0.6-2.5,1.4-3.5,2.6
		c-1,1.1-1.8,2.5-2.3,4.1s-0.8,3.5-0.8,5.6C203,61.6,203.2,63.5,203.8,65.1z"/>
	<path fill="#FFFFFF" d="M262.8,76.9v-4.7h-0.1c-0.9,1.9-2.4,3.3-4.4,4.2c-2,0.9-4.2,1.3-6.7,1.3c-2.7,0-5-0.5-7-1.5s-3.7-2.3-5-4
		c-1.3-1.7-2.3-3.6-3-5.8c-0.7-2.2-1-4.5-1-7c0-2.5,0.3-4.8,1-7c0.7-2.2,1.6-4.1,3-5.8c1.3-1.6,3-2.9,5-3.9c2-1,4.3-1.4,7-1.4
		c0.9,0,1.9,0.1,2.9,0.3c1,0.2,2.1,0.5,3.1,0.9c1,0.4,2,1,2.9,1.7c0.9,0.7,1.7,1.6,2.3,2.6h0.1V28.8h5.7v48H262.8z M242.2,64.5
		c0.4,1.5,1.1,2.9,2,4.1c0.9,1.2,2,2.2,3.4,2.9c1.4,0.7,3,1.1,4.8,1.1c1.9,0,3.6-0.4,4.9-1.1c1.3-0.8,2.4-1.8,3.3-3
		c0.9-1.2,1.5-2.6,1.9-4.2c0.4-1.6,0.6-3.2,0.6-4.8c0-1.7-0.2-3.4-0.6-4.9c-0.4-1.6-1-3-1.9-4.2c-0.9-1.2-2-2.2-3.4-2.9
		c-1.4-0.7-3.1-1.1-5-1.1c-1.9,0-3.6,0.4-4.9,1.1c-1.3,0.8-2.4,1.8-3.2,3c-0.8,1.3-1.4,2.7-1.8,4.3c-0.4,1.6-0.5,3.3-0.5,5
		C241.6,61.4,241.8,63,242.2,64.5z"/>
	<path fill="#FFFFFF" d="M301.9,74.6c-2.6,2-5.9,3-9.8,3c-2.8,0-5.2-0.4-7.2-1.3c-2-0.9-3.8-2.2-5.1-3.8s-2.4-3.5-3.1-5.8
		c-0.7-2.2-1.1-4.7-1.2-7.3c0-2.6,0.4-5.1,1.2-7.3c0.8-2.2,1.9-4.1,3.4-5.7c1.5-1.6,3.2-2.9,5.2-3.8c2-0.9,4.2-1.3,6.6-1.3
		c3.1,0,5.7,0.6,7.7,1.9c2,1.3,3.7,2.9,4.9,4.9c1.2,2,2.1,4.1,2.6,6.5c0.5,2.3,0.7,4.6,0.6,6.7h-26c0,1.5,0.1,3,0.5,4.3
		c0.4,1.4,1.1,2.6,2,3.6c0.9,1.1,2,1.9,3.4,2.5c1.4,0.6,3,0.9,4.9,0.9c2.4,0,4.4-0.6,6-1.7c1.5-1.1,2.6-2.8,3.1-5.1h5.7
		C306.2,69.7,304.5,72.7,301.9,74.6z M300.6,52.3c-0.5-1.2-1.2-2.3-2.1-3.1c-0.9-0.9-1.9-1.6-3.1-2.1c-1.2-0.5-2.5-0.8-3.9-0.8
		c-1.5,0-2.8,0.3-4,0.8c-1.2,0.5-2.2,1.2-3.1,2.1c-0.9,0.9-1.5,1.9-2,3.1c-0.5,1.2-0.8,2.5-0.9,3.8h20
		C301.4,54.8,301.1,53.5,300.6,52.3z"/>
	<path fill="#FFFFFF" d="M322.2,69.4v7.5h-7.5v-7.5H322.2z"/>
	<path fill="#FFFFFF" d="M332.5,35.8v-7h5.7v7H332.5z M338.2,42.1v34.8h-5.7V42.1H338.2z"/>
	<path fill="#FFFFFF" d="M346.3,52.3c0.7-2.2,1.8-4.1,3.2-5.8c1.4-1.6,3.2-2.9,5.3-3.9c2.1-0.9,4.5-1.4,7.3-1.4
		c2.8,0,5.2,0.5,7.3,1.4c2.1,0.9,3.8,2.2,5.3,3.9c1.4,1.6,2.5,3.6,3.2,5.8c0.7,2.2,1.1,4.6,1.1,7.2s-0.4,4.9-1.1,7.1
		c-0.7,2.2-1.8,4.1-3.2,5.8c-1.4,1.6-3.2,2.9-5.3,3.8s-4.5,1.4-7.3,1.4c-2.7,0-5.2-0.5-7.3-1.4c-2.1-0.9-3.9-2.2-5.3-3.8
		s-2.5-3.6-3.2-5.8c-0.7-2.2-1.1-4.6-1.1-7.1S345.6,54.5,346.3,52.3z M352.1,65.1c0.6,1.6,1.3,3,2.3,4.1c1,1.1,2.1,1.9,3.5,2.5
		c1.3,0.6,2.7,0.9,4.2,0.9s2.9-0.3,4.2-0.9c1.3-0.6,2.5-1.4,3.5-2.5c1-1.1,1.8-2.5,2.3-4.1s0.8-3.5,0.8-5.6c0-2.1-0.3-4-0.8-5.6
		s-1.3-3-2.3-4.1c-1-1.1-2.1-2-3.5-2.6c-1.3-0.6-2.7-0.9-4.2-0.9s-2.9,0.3-4.2,0.9c-1.3,0.6-2.5,1.4-3.5,2.6c-1,1.1-1.8,2.5-2.3,4.1
		c-0.6,1.6-0.8,3.5-0.8,5.6C351.3,61.6,351.5,63.5,352.1,65.1z"/>
</g>
</svg>
